<?xml version="1.0" encoding="UTF-8"?>
<svg id="Layer_1" data-name="Layer 1" xmlns="http://www.w3.org/2000/svg" version="1.1" viewBox="0 0 1015.92 247.1">
  <defs>
    <style>
      .cls-1 {
        stroke-width: .75px;
      }

      .cls-1, .cls-2 {
        fill: none;
        stroke: #231f20;
        stroke-miterlimit: 10;
      }

      .cls-2 {
        stroke-width: 2px;
      }

      .cls-3 {
        font-family: Graphik-Light, Graphik;
        font-size: 24px;
        font-weight: 300;
      }

      .cls-3, .cls-4 {
        fill: #000;
      }

      .cls-4, .cls-5, .cls-6 {
        stroke-width: 0px;
      }

      .cls-5 {
        fill: #fff;
      }

      .cls-6 {
        fill: #231f20;
      }
    </style>
  </defs>
  <g>
    <g>
      <rect class="cls-4" x="19.14" y="19.85" width="89.5" height="159.5"/>
      <path class="cls-6" d="M108.39,20.1v159H19.39V20.1h89M108.89,19.6H18.89v160h90V19.6h0Z"/>
    </g>
    <g>
      <rect class="cls-4" x="109.14" y="19.85" width="89.5" height="159.5"/>
      <path class="cls-6" d="M198.39,20.1v159h-89V20.1h89M198.89,19.6h-90v160h90V19.6h0Z"/>
    </g>
    <g>
      <rect class="cls-4" x="199.14" y="19.85" width="89.5" height="159.5"/>
      <path class="cls-6" d="M288.39,20.1v159h-89V20.1h89M288.89,19.6h-90v160h90V19.6h0Z"/>
    </g>
    <g>
      <rect class="cls-4" x="289.14" y="19.85" width="89.5" height="159.5"/>
      <path class="cls-6" d="M378.39,20.1v159h-89V20.1h89M378.89,19.6h-90v160h90V19.6h0Z"/>
    </g>
    <g>
      <rect class="cls-4" x="379.14" y="19.85" width="89.5" height="159.5"/>
      <path class="cls-6" d="M468.39,20.1v159h-89V20.1h89M468.89,19.6h-90v160h90V19.6h0Z"/>
    </g>
    <g>
      <rect class="cls-4" x="469.14" y="19.85" width="89.5" height="159.5"/>
      <path class="cls-6" d="M558.39,20.1v159h-89V20.1h89M558.89,19.6h-90v160h90V19.6h0Z"/>
    </g>
    <g>
      <rect class="cls-4" x="559.14" y="19.85" width="89.5" height="159.5"/>
      <path class="cls-6" d="M648.39,20.1v159h-89V20.1h89M648.89,19.6h-90v160h90V19.6h0Z"/>
    </g>
    <g>
      <rect class="cls-4" x="649.14" y="19.85" width="89.5" height="159.5"/>
      <path class="cls-6" d="M738.39,20.1v159h-89V20.1h89M738.89,19.6h-90v160h90V19.6h0Z"/>
    </g>
    <g>
      <rect class="cls-4" x="739.14" y="19.85" width="89.5" height="159.5"/>
      <path class="cls-6" d="M828.39,20.1v159h-89V20.1h89M828.89,19.6h-90v160h90V19.6h0Z"/>
    </g>
  </g>
  <g>
    <g>
      <rect class="cls-5" x="12.02" y="12.72" width="89.75" height="159.75"/>
      <path class="cls-6" d="M101.64,12.85v159.5H12.14V12.85h89.5M101.89,12.6H11.89v160h90V12.6h0Z"/>
    </g>
    <g>
      <rect class="cls-5" x="102.02" y="12.72" width="89.75" height="159.75"/>
      <path class="cls-6" d="M191.64,12.85v159.5h-89.5V12.85h89.5M191.89,12.6h-90v160h90V12.6h0Z"/>
    </g>
    <g>
      <rect class="cls-5" x="192.02" y="12.72" width="89.75" height="159.75"/>
      <path class="cls-6" d="M281.64,12.85v159.5h-89.5V12.85h89.5M281.89,12.6h-90v160h90V12.6h0Z"/>
    </g>
    <g>
      <rect class="cls-5" x="282.02" y="12.72" width="89.75" height="159.75"/>
      <path class="cls-6" d="M371.64,12.85v159.5h-89.5V12.85h89.5M371.89,12.6h-90v160h90V12.6h0Z"/>
    </g>
    <g>
      <rect class="cls-5" x="372.02" y="12.72" width="89.75" height="159.75"/>
      <path class="cls-6" d="M461.64,12.85v159.5h-89.5V12.85h89.5M461.89,12.6h-90v160h90V12.6h0Z"/>
    </g>
    <g>
      <rect class="cls-5" x="462.02" y="12.72" width="89.75" height="159.75"/>
      <path class="cls-6" d="M551.64,12.85v159.5h-89.5V12.85h89.5M551.89,12.6h-90v160h90V12.6h0Z"/>
    </g>
    <g>
      <rect class="cls-5" x="552.02" y="12.72" width="89.75" height="159.75"/>
      <path class="cls-6" d="M641.64,12.85v159.5h-89.5V12.85h89.5M641.89,12.6h-90v160h90V12.6h0Z"/>
    </g>
    <g>
      <rect class="cls-5" x="642.02" y="12.72" width="89.75" height="159.75"/>
      <path class="cls-6" d="M731.64,12.85v159.5h-89.5V12.85h89.5M731.89,12.6h-90v160h90V12.6h0Z"/>
    </g>
    <g>
      <rect class="cls-5" x="732.02" y="12.72" width="89.75" height="159.75"/>
      <path class="cls-6" d="M821.64,12.85v159.5h-89.5V12.85h89.5M821.89,12.6h-90v160h90V12.6h0Z"/>
    </g>
  </g>
  <g>
    <text class="cls-3" transform="translate(52.48 100.34)"><tspan x="0" y="0">1</tspan></text>
    <text class="cls-3" transform="translate(140.45 100.34)"><tspan x="0" y="0">2</tspan></text>
    <text class="cls-3" transform="translate(230.09 100.34)"><tspan x="0" y="0">3</tspan></text>
    <text class="cls-3" transform="translate(319.75 100.34)"><tspan x="0" y="0">4</tspan></text>
    <text class="cls-3" transform="translate(410.16 100.34)"><tspan x="0" y="0">5</tspan></text>
    <text class="cls-3" transform="translate(499.69 100.34)"><tspan x="0" y="0">6</tspan></text>
    <text class="cls-3" transform="translate(590.84 100.34)"><tspan x="0" y="0">7</tspan></text>
    <text class="cls-3" transform="translate(679.9 100.34)"><tspan x="0" y="0">8</tspan></text>
    <text class="cls-3" transform="translate(769.7 100.34)"><tspan x="0" y="0">9</tspan></text>
  </g>
  <g>
    <line class="cls-1" x1="18.54" y1="204.01" x2="815.25" y2="205.89"/>
    <polygon class="cls-6" points="20.02 206.19 11.89 204 20.03 201.83 20.02 206.19"/>
    <polygon class="cls-6" points="813.75 208.06 821.89 205.9 813.76 203.7 813.75 208.06"/>
  </g>
  <g>
    <line class="cls-1" x1="855.54" y1="19.24" x2="853.79" y2="165.95"/>
    <polygon class="cls-6" points="853.35 20.7 855.62 12.6 857.7 20.75 853.35 20.7"/>
    <polygon class="cls-6" points="851.63 164.44 853.71 172.6 855.99 164.49 851.63 164.44"/>
  </g>
  <text class="cls-3" transform="translate(282.96 235.47) rotate(.13)"><tspan x="0" y="0">9720 pixels / 6.12 meters</tspan></text>
  <g>
    <path class="cls-4" d="M871.14,73.17l-3.94,2.74v-1.25l4.13-2.88h1.13v17.16h-1.32v-15.77Z"/>
    <path class="cls-4" d="M876.52,85h1.3c.43,1.92,1.75,3,3.98,3,3.02,0,4.87-1.85,4.9-7.2v-.91c-.79,1.82-2.83,2.81-4.87,2.81-3.48,0-5.59-2.33-5.59-5.52s2.28-5.59,5.78-5.59c4.06,0,5.98,2.86,5.98,7.08v1.97c0,6.05-2.33,8.47-6.22,8.47-2.81,0-4.78-1.44-5.26-4.1ZM886.53,77.49c0-2.66-1.54-4.85-4.51-4.85-2.69,0-4.42,1.82-4.42,4.49s1.56,4.49,4.39,4.49c2.47,0,4.54-1.58,4.54-4.13Z"/>
    <path class="cls-4" d="M889.89,88.63l6.89-7.13c1.82-1.87,2.69-3.43,2.69-5.28,0-2.28-1.44-3.53-3.65-3.53s-3.77,1.27-4.1,4.08h-1.25c.26-3.24,2.35-5.18,5.35-5.18s4.99,1.7,4.99,4.68c0,2.09-1.15,4.01-3.26,6.07l-5.54,5.5h9.05v1.1h-11.16v-.31Z"/>
    <path class="cls-4" d="M903.54,81.09v-1.44c0-5.02,2.45-8.06,6.53-8.06s6.58,3.1,6.58,7.99v1.46c0,4.99-2.35,8.09-6.5,8.09s-6.6-3.05-6.6-8.04ZM915.28,81.02v-1.44c0-4.2-1.92-6.89-5.21-6.89s-5.16,2.52-5.16,6.94v1.46c0,4.56,1.97,6.91,5.23,6.91s5.14-2.42,5.14-6.98Z"/>
    <path class="cls-4" d="M925.89,76.39h1.27v2.93c.72-1.63,2.57-3.12,4.78-3.12,3.17,0,5.64,2.42,5.64,6.34v.19c0,3.94-2.4,6.41-5.64,6.41-2.5,0-4.1-1.51-4.78-3.05v7.22h-1.27v-16.92ZM936.25,82.77v-.19c0-3.46-2.04-5.3-4.44-5.3s-4.68,1.85-4.68,5.3v.19c0,3.43,2.09,5.28,4.7,5.28s4.42-1.92,4.42-5.28Z"/>
    <path class="cls-4" d="M940.33,72.79c0-.48.41-.89.91-.89s.89.41.89.89c0,.5-.38.91-.89.91s-.91-.41-.91-.91ZM940.62,76.39h1.27v12.55h-1.27v-12.55Z"/>
    <path class="cls-4" d="M949.26,82.46l-4.37-6.07h1.51l3.62,5.11,3.58-5.11h1.42l-4.3,5.98,4.75,6.58h-1.51l-3.98-5.62-3.98,5.62h-1.39l4.66-6.48Z"/>
    <path class="cls-4" d="M956.65,82.8v-.19c0-3.79,2.4-6.41,5.76-6.41,3.02,0,5.5,1.97,5.5,6.12v.46h-9.94c.05,3.36,1.66,5.28,4.63,5.28,2.09,0,3.5-.86,3.94-2.62h1.27c-.53,2.4-2.52,3.7-5.21,3.7-3.62,0-5.95-2.57-5.95-6.34ZM966.59,81.74c-.12-3.05-1.73-4.46-4.18-4.46s-4.15,1.73-4.39,4.46h8.57Z"/>
    <path class="cls-4" d="M970.93,70.39h1.3v18.55h-1.3v-18.55Z"/>
    <path class="cls-4" d="M975.16,85.2h1.22c.22,1.7,1.27,2.88,3.6,2.88,2.11,0,3.19-.96,3.19-2.47,0-1.61-.94-2.11-3.29-2.54-3.07-.55-4.32-1.34-4.32-3.5s2.02-3.36,4.13-3.36c2.26,0,4.03.94,4.37,3.41h-1.22c-.31-1.61-1.34-2.33-3.17-2.33s-2.93.89-2.93,2.23c0,1.44.86,1.97,3.43,2.42,2.69.48,4.22,1.13,4.22,3.58,0,2.11-1.56,3.65-4.42,3.65s-4.66-1.56-4.82-3.96Z"/>
    <path class="cls-4" d="M998.63,70.32h1.2l-6.98,22.18h-1.2l6.98-22.18Z"/>
    <path class="cls-4" d="M871.14,101.97l-3.94,2.74v-1.25l4.13-2.88h1.13v17.16h-1.32v-15.77Z"/>
    <path class="cls-4" d="M876.64,116.85c0-.58.46-1.03,1.01-1.03s1.03.46,1.03,1.03-.46,1.01-1.03,1.01-1.01-.46-1.01-1.01Z"/>
    <path class="cls-4" d="M881.01,117.43l6.89-7.13c1.82-1.87,2.69-3.43,2.69-5.28,0-2.28-1.44-3.53-3.65-3.53s-3.77,1.27-4.1,4.08h-1.25c.26-3.24,2.35-5.18,5.35-5.18s4.99,1.7,4.99,4.68c0,2.09-1.15,4.01-3.26,6.07l-5.54,5.5h9.05v1.1h-11.16v-.31Z"/>
    <path class="cls-4" d="M898,101.97l-3.94,2.74v-1.25l4.13-2.88h1.13v17.16h-1.32v-15.77Z"/>
    <path class="cls-4" d="M910.14,105.19h1.27v2.38c.58-1.37,2.06-2.57,4.1-2.57,1.87,0,3.31.79,3.84,2.81.79-1.78,2.57-2.81,4.46-2.81,2.42,0,4.2,1.32,4.2,4.9v7.85h-1.27v-7.92c0-2.66-1.13-3.72-3.14-3.72s-3.89,1.37-3.89,3.98v7.66h-1.27v-7.92c0-2.66-1.13-3.72-3.14-3.72s-3.89,1.37-3.89,3.98v7.66h-1.27v-12.55Z"/>
    <path class="cls-4" d="M930.9,111.6v-.19c0-3.79,2.4-6.41,5.76-6.41,3.02,0,5.5,1.97,5.5,6.12v.46h-9.94c.05,3.36,1.66,5.28,4.63,5.28,2.09,0,3.5-.86,3.94-2.62h1.27c-.53,2.4-2.52,3.7-5.21,3.7-3.62,0-5.95-2.57-5.95-6.34ZM940.84,110.54c-.12-3.05-1.73-4.46-4.18-4.46s-4.15,1.73-4.39,4.46h8.57Z"/>
    <path class="cls-4" d="M945.61,114.72v-8.45h-1.85v-1.08h1.85v-2.86h1.27v2.86h3.29v1.08h-3.29v8.35c0,1.51.72,2.21,1.87,2.21.65,0,1.15-.12,1.58-.26v1.08c-.41.14-.89.26-1.66.26-1.99,0-3.07-1.18-3.07-3.19Z"/>
    <path class="cls-4" d="M952.19,111.6v-.19c0-3.79,2.4-6.41,5.76-6.41,3.02,0,5.5,1.97,5.5,6.12v.46h-9.94c.05,3.36,1.66,5.28,4.63,5.28,2.09,0,3.5-.86,3.94-2.62h1.27c-.53,2.4-2.52,3.7-5.21,3.7-3.62,0-5.95-2.57-5.95-6.34ZM962.13,110.54c-.12-3.05-1.73-4.46-4.18-4.46s-4.15,1.73-4.39,4.46h8.57Z"/>
    <path class="cls-4" d="M966.42,105.19h1.27v2.64c.7-1.54,1.94-2.74,4.25-2.81v1.2c-2.42.1-4.25,1.22-4.25,4.56v6.96h-1.27v-12.55Z"/>
    <path class="cls-4" d="M973.55,114h1.22c.22,1.7,1.27,2.88,3.6,2.88,2.11,0,3.19-.96,3.19-2.47,0-1.61-.94-2.11-3.29-2.54-3.07-.55-4.32-1.34-4.32-3.5s2.02-3.36,4.13-3.36c2.26,0,4.03.94,4.37,3.41h-1.22c-.31-1.61-1.34-2.33-3.17-2.33s-2.93.89-2.93,2.23c0,1.44.86,1.97,3.43,2.42,2.69.48,4.22,1.13,4.22,3.58,0,2.11-1.56,3.65-4.42,3.65s-4.66-1.56-4.82-3.96Z"/>
  </g>
  <rect class="cls-2" x="12.39" y="13.1" width="809" height="159"/>
</svg>
